<?xml version="1.0" encoding="UTF-8"?>
<svg width="267px" height="117px" viewBox="0 0 267 117" version="1.1" xmlns="http://www.w3.org/2000/svg" xmlns:xlink="http://www.w3.org/1999/xlink">
    <!-- Generator: Sketch 53.2 (72643) - https://sketchapp.com -->
    <title>illo</title>
    <desc>Created with Sketch.</desc>
    <defs>
        <polygon id="path-1" points="0 116.494147 266.390043 116.494147 266.390043 0 0 0"></polygon>
    </defs>
    <g id="Page-1" stroke="none" stroke-width="1" fill="none" fill-rule="evenodd">
        <g id="Choosing-a-plan---Mobile---Add-illo-(Yes)" transform="translate(-149.000000, -1901.000000)">
            <g id="illo" transform="translate(149.000000, 1901.000000)">
                <path d="M19.9340819,114.950321 C38.2408448,114.318291 56.5476078,114.185232 74.8555216,114.026938 L129.776961,113.881262 C166.392789,114.018909 203.006315,113.940909 239.622142,114.720909 C239.875332,114.726644 240.076733,114.935409 240.070978,115.188909 C240.066375,115.435526 239.867276,115.632821 239.622142,115.638556 C203.006315,116.417409 166.392789,116.339409 129.776961,116.477056 L74.8555216,116.331379 C56.5476078,116.173085 38.2408448,116.040026 19.9340819,115.407997 C19.8063362,115.404556 19.7073621,115.299026 19.7119655,115.170556 C19.716569,115.050115 19.8143922,114.954909 19.9340819,114.950321 Z" id="Fill-1" fill="#E9EFF4"></path>
                <path d="M65.7797082,114.191885 L67.0376004,14.6833853 L67.0376004,9.68106176 C67.0376004,5.31306176 70.5903116,1.77209118 74.9716435,1.77209118 L192.349217,1.77209118 C196.729398,1.77209118 200.282109,5.31306176 200.282109,9.68106176 L200.282109,114.22515 L79.0583547,114.22515" id="Stroke-3" stroke="#86A6BD" stroke-width="1.5" stroke-linecap="round" stroke-linejoin="round"></path>
                <mask id="mask-2" fill="white">
                    <use xlink:href="#path-1"></use>
                </mask>
                <g id="Clip-6"></g>
                <polygon id="Fill-5" fill="#D9A2DC" mask="url(#mask-2)" points="77.9812629 114.225265 141.14978 114.225265 141.14978 36.7322647 77.9812629 36.7322647"></polygon>
                <polygon id="Fill-7" fill="#D9A2DC" mask="url(#mask-2)" points="152.368384 69.7721471 186.835552 69.7721471 186.835552 36.7322647 152.368384 36.7322647"></polygon>
                <polygon id="Fill-8" fill="#C879CC" mask="url(#mask-2)" points="152.368384 97.1455588 186.835552 97.1455588 186.835552 79.8869118 152.368384 79.8869118"></polygon>
                <path d="M67.0149284,22.4910706 L67.0149284,15.3276882 L67.0149284,9.38821765 C67.0149284,4.20351176 70.5676397,0.000688235294 74.9501224,0.000688235294 L192.346109,0.000688235294 C196.729743,0.000688235294 200.282454,4.20351176 200.282454,9.38821765 L200.282454,22.4910706 L67.0149284,22.4910706 Z" id="Fill-9" fill="#C879CC" mask="url(#mask-2)"></path>
                <path d="M203.933794,22.4865971 C192.177738,23.4134206 180.421682,23.3457441 168.666777,23.3996559 L133.400911,23.5545088 L98.1338935,23.3996559 C86.3789884,23.3445971 74.6240832,23.4157147 62.869178,22.4865971 L62.869178,21.9130676 C74.6240832,20.98395 86.3789884,21.0539206 98.1338935,20.9988618 L133.400911,20.8440088 L168.666777,20.9988618 C180.421682,21.0539206 192.177738,20.9850971 203.933794,21.9130676 L203.933794,22.4865971 Z" id="Fill-10" fill="#004F84" mask="url(#mask-2)"></path>
                <path d="M111.155668,87.9136853 L93.0261375,87.9136853 C93.0261375,97.8265676 101.209918,105.983303 111.155668,105.983303 C121.101418,105.983303 129.284047,97.8265676 129.284047,87.9136853 C129.284047,78.0008029 121.101418,69.8452147 111.155668,69.8452147 C111.018715,69.8452147 110.880612,69.8463618 110.743659,69.8498029 L111.155668,87.9136853 Z" id="Fill-11" fill="#C879CC" mask="url(#mask-2)"></path>
                <path d="M105.916023,83.4800735 L105.916023,65.4116029 C95.9702728,65.4116029 87.7876435,73.5683382 87.7876435,83.4800735 L105.916023,83.4800735 Z" id="Fill-12" fill="#C879CC" mask="url(#mask-2)"></path>
                <path d="M168.0559,64.02825 L159.622382,64.02825 L159.622382,56.1422206 C159.622382,55.8875735 159.929662,55.68225 160.311749,55.68225 L168.0559,55.68225 L168.0559,64.02825 Z" id="Fill-13" fill="#FFFFFF" mask="url(#mask-2)"></path>
                <path d="M180.257915,64.02825 L171.823247,64.02825 L171.823247,48.8423382 C171.823247,48.0095735 172.501104,47.3351029 173.334328,47.3351029 L180.257915,47.3351029 L180.257915,64.02825 Z" id="Fill-14" fill="#FFFFFF" mask="url(#mask-2)"></path>
                <path d="M248.386993,78.8929853 C248.853092,78.8046618 249.311135,78.7335441 249.806006,78.7392794 C250.269803,78.7358382 250.974131,78.8356324 251.386139,79.4366912 C251.775131,80.0021912 251.790092,80.5676912 251.809656,81.0609265 C251.813109,81.5553088 251.783187,82.0554265 251.72104,82.5016324 C251.509281,84.3174265 251.277958,86.1309265 251.036277,87.9432794 C250.798049,89.7567794 250.589743,91.5748676 250.327346,93.3860735 C250.089118,95.1995735 249.791044,97.0084853 249.45154,98.8116618 C249.428523,98.9378382 249.307682,99.0204265 249.182238,98.9963382 C249.070605,98.9756912 248.991195,98.8770441 248.993497,98.7657794 C249.028023,96.9293382 249.118941,95.0963382 249.278911,93.2713676 C249.415863,91.4429559 249.617264,89.6225735 249.802553,87.8010441 C249.986691,85.9772206 250.193846,84.1556912 250.447036,82.3398971 C250.503428,81.8787794 250.577083,81.4669853 250.6001,81.0471618 C250.624269,80.6376618 250.590894,80.2373382 250.47926,80.0205441 C250.406756,79.8014559 250.114437,79.6397206 249.695523,79.5020735 C249.281213,79.3839265 248.819717,79.27725 248.370881,79.12125 C248.308734,79.1006029 248.275359,79.0329265 248.297225,78.9698382 C248.312187,78.9285441 248.346713,78.9010147 248.386993,78.8929853" id="Fill-15" fill="#C8D7E2" mask="url(#mask-2)"></path>
                <path d="M254.786361,66.3996794 C256.615081,66.1599441 258.443801,66.0440912 260.273672,65.9832971 C262.101241,65.9018559 263.92996,65.92365 265.75868,65.8880912 L265.14412,66.6474441 C264.688378,64.5953559 264.03584,62.5753853 263.020779,60.7928559 C262.032189,59.0470324 260.508447,57.4388559 258.632542,57.3734735 C256.757788,57.2954735 255.014232,58.6822676 253.713758,60.2330912 C252.39487,61.8275029 251.362547,63.6880324 250.486741,65.6082088 C248.753542,69.47265 247.569305,73.5974735 246.667029,77.7704735 C245.74634,81.9457676 245.099555,86.1864441 244.586271,90.4454735 C244.570159,90.57165 244.455072,90.6611206 244.329628,90.6473559 C244.208788,90.6324441 244.119021,90.5234735 244.127077,90.4041794 C244.410189,86.1095912 244.907361,81.8207382 245.721021,77.5777676 C246.562301,73.3462676 247.654469,69.1285324 249.41759,65.1310324 C250.310659,63.1408853 251.361396,61.1943265 252.775805,59.4576794 C253.495094,58.6019735 254.299547,57.7887088 255.280081,57.1532382 C256.247956,56.5235029 257.429891,56.0612382 258.682029,56.1105618 C259.931866,56.1484147 261.110348,56.7093265 261.999965,57.4732676 C262.90109,58.2395029 263.592758,59.1697676 264.154378,60.1470618 C265.254603,62.1177088 265.912896,64.2432088 266.37209,66.3813265 L266.375542,66.3939441 C266.448047,66.7277382 266.233986,67.0557971 265.900236,67.1280618 C265.854202,67.1372382 265.803564,67.1406794 265.75868,67.1406794 C263.92996,67.1051206 262.101241,67.1269147 260.273672,67.0454735 C258.443801,66.9846794 256.615081,66.8688265 254.786361,66.6290912 C254.723064,66.6199147 254.67818,66.5637088 254.686236,66.4994735 C254.694292,66.4467088 254.735723,66.4065618 254.786361,66.3996794" id="Fill-16" fill="#C8D7E2" mask="url(#mask-2)"></path>
                <path d="M251.810347,56.0895706 C245.896067,56.4073059 239.981787,56.4749824 234.066356,56.5518353 L225.193209,56.5919824 L220.757787,56.6126294 C220.036196,56.6413059 219.204123,56.5610118 218.710403,56.6871882 C218.134972,56.8317176 217.554938,57.1781294 217.020938,57.5933647 C214.884938,59.3529529 213.335877,61.9258059 211.998575,64.4757176 C210.66933,67.0611882 209.602481,69.7888941 208.6933,72.5624824 C206.896804,78.1211294 205.787373,83.9206588 205.566407,89.7832765 C205.561804,89.9094529 205.457075,90.0081 205.328179,90.0046588 C205.207338,90.0012176 205.110666,89.9025706 205.106063,89.7832765 C204.921925,83.8518353 205.904761,77.9123647 207.621847,72.2275412 C208.491899,69.3851294 209.57486,66.6012176 210.912162,63.9262765 C211.583114,62.5899529 212.320817,61.2823059 213.173606,60.0331588 C214.030998,58.7897471 214.978157,57.5818941 216.211881,56.5793647 C216.832196,56.0872765 217.539976,55.6353353 218.406575,55.4265706 C218.828942,55.3095706 219.344528,55.3290706 219.672524,55.3325118 L220.780804,55.3371 L225.213925,55.3566 L234.079015,55.3978941 C239.988692,55.4747471 245.897218,55.5424235 251.810347,55.8601588 C251.873644,55.8636 251.923131,55.9186588 251.919679,55.9806 C251.916226,56.0402471 251.86789,56.0861294 251.810347,56.0895706" id="Fill-17" fill="#C8D7E2" mask="url(#mask-2)"></path>
                <path d="M241.015376,67.2487324 C239.339721,67.5504088 237.662915,67.6570853 235.986109,67.7121441 C234.309303,67.7603206 232.632497,67.7935853 230.955691,67.7832618 C227.602078,67.7144382 224.249617,67.7534382 220.896005,67.3645853 C220.768259,67.3496735 220.677341,67.2338206 220.692303,67.1076441 C220.704962,66.9986735 220.791277,66.9172324 220.896005,66.9046147 C224.249617,66.5146147 227.602078,66.5547618 230.955691,66.4859382 C232.632497,66.4756147 234.309303,66.5077324 235.986109,66.5559088 C237.662915,66.6109676 239.339721,66.7187912 241.015376,67.0204676 C241.079824,67.0319382 241.122406,67.0915853 241.109747,67.1546735 C241.10054,67.2039971 241.062561,67.2407029 241.015376,67.2487324" id="Fill-18" fill="#C8D7E2" mask="url(#mask-2)"></path>
                <path d="M237.336875,75.7900765 C236.481785,76.0929 235.627845,76.1995765 234.771604,76.2534882 C233.916513,76.3016647 233.061423,76.3337824 232.206332,76.3257529 C231.351242,76.3131353 230.497302,76.2821647 229.641061,76.2385765 C228.78597,76.1881059 227.93088,76.1032235 227.075789,75.9059294 C226.949194,75.8749588 226.869785,75.7487824 226.899707,75.6226059 C226.920423,75.5319882 226.991776,75.4666059 227.075789,75.4459588 C227.93088,75.2475176 228.78597,75.1637824 229.641061,75.1133118 C230.497302,75.0697235 231.351242,75.0387529 232.206332,75.0261353 C233.061423,75.0181059 233.916513,75.0490765 234.771604,75.0972529 C235.627845,75.1511647 236.481785,75.2589882 237.336875,75.5618118 C237.401324,75.5836059 237.433548,75.6535765 237.410531,75.7166647 C237.399022,75.7522235 237.37025,75.7786059 237.336875,75.7900765" id="Fill-19" fill="#C8D7E2" mask="url(#mask-2)"></path>
                <path d="M188.979263,115.877718 L249.840301,115.877718 L249.840301,90.4256294 L213.321146,90.4256294 C199.877926,90.4256294 188.979263,101.287129 188.979263,114.685924 L188.979263,115.877718 Z" id="Fill-20" fill="#FFFFFF" mask="url(#mask-2)"></path>
                <path d="M188.811812,115.957324 C188.772683,115.551265 188.739308,115.119971 188.738157,114.695559 L188.785342,113.501471 L188.834829,112.306235 C188.864752,111.9105 188.938407,111.517059 188.989045,111.121324 C189.093773,110.331 189.204256,109.539529 189.426372,108.771 C189.612812,107.994441 189.794648,107.215588 190.092722,106.471147 C191.13195,103.449794 192.777683,100.629176 194.914834,98.2341176 C199.159213,93.4130294 205.378472,90.3492353 211.840562,89.9615294 C215.065278,89.7906176 218.184114,89.8766471 221.362795,89.8422353 L230.855105,89.8238824 L249.839726,89.7871765 C250.193041,89.7860294 250.479605,90.0705 250.480756,90.4215 L250.480756,90.4249412 L250.45889,115.878176 C250.460041,116.217706 250.184984,116.493 249.843178,116.494147 L249.839726,116.494147 C239.628127,116.464324 229.391209,116.465471 219.211834,116.353059 C209.019799,116.281941 198.90142,116.114471 188.898127,115.958471 L188.811812,115.957324 Z M189.132903,115.794441 C199.392838,115.640735 209.537687,115.472118 219.60773,115.402147 C229.715752,115.288588 239.763928,115.290882 249.839726,115.261059 L249.221713,115.878176 L249.199847,90.4249412 L249.839726,91.0627059 L230.855105,91.026 C224.541476,91.0374706 218.1657,90.9457059 211.902709,91.0328824 C205.716825,91.3196471 199.695515,94.1723824 195.524791,98.7789706 C193.434825,101.071941 191.781036,103.768676 190.708433,106.690235 C190.403454,107.408294 190.21126,108.161912 190.013312,108.915529 C189.780838,109.662265 189.657696,110.431941 189.540308,111.201618 C189.482765,111.587029 189.402204,111.970147 189.363075,112.357853 L189.292872,113.525559 L189.221519,114.693265 C189.219217,115.0305 189.184691,115.355118 189.142109,115.715294 L189.132903,115.794441 Z" id="Fill-21" fill="#C8D7E2" mask="url(#mask-2)"></path>
                <path d="M195.003335,106.039279 C198.785068,105.723838 202.567951,105.656162 206.350835,105.578162 L217.699486,105.50475 C225.264102,105.573574 232.828719,105.534574 240.394486,105.923426 C240.522231,105.930309 240.620055,106.039279 240.61315,106.165456 C240.607395,106.283603 240.510723,106.376515 240.394486,106.383397 C232.828719,106.773397 225.264102,106.73325 217.699486,106.802074 L206.350835,106.730956 C202.567951,106.650662 198.785068,106.585279 195.003335,106.267544 C194.938887,106.262956 194.891701,106.20675 194.897456,106.143662 C194.902059,106.087456 194.948094,106.043868 195.003335,106.039279" id="Fill-22" fill="#C8D7E2" mask="url(#mask-2)"></path>
                <path d="M38.5018603,57.1828324 C46.3185155,51.2341853 46.7109595,38.4375971 39.4190974,24.2278324 C32.1272353,10.0180676 11.8444422,-4.42110882 2.47067069,9.89877353 C-6.90195,24.2198029 21.6601448,65.2833618 33.4426707,58.9493029" id="Fill-23" fill="#FFFFFF" mask="url(#mask-2)"></path>
                <path d="M38.4321181,57.0921 C40.8512302,55.1845412 42.5441483,52.4946882 43.3946353,49.5811588 C44.2600836,46.6641882 44.41545,43.5717176 44.107019,40.5469235 C43.4487259,34.4824235 41.2310147,28.6358647 38.2836569,23.3089235 C35.237325,18.0462176 31.0493379,13.4029235 26.1397603,9.80230588 C23.6780664,8.02092353 21.0046138,6.50221765 18.1481741,5.54901176 C15.3089974,4.60612941 12.2177819,4.26774706 9.41658362,5.14983529 C6.60848017,5.98374706 4.2987,8.10121765 2.77956207,10.6213059 C1.29725172,13.1333647 1.06247586,16.2510706 1.33407931,19.2253941 C1.97280776,25.2486 4.37005345,31.0263353 7.22419138,36.4186588 C10.131269,41.8086882 13.6552086,46.9073647 17.8616095,51.3728647 C19.9722905,53.5912765 22.2740147,55.6513941 24.8577,57.2676 C26.151269,58.0602176 27.5242474,58.7461588 28.9869931,59.1040412 C30.4359284,59.4573353 32.0068552,59.4424235 33.3326483,58.7473059 C33.4454328,58.6888059 33.5846871,58.7323941 33.643381,58.8436588 C33.702075,58.9537765 33.6594931,59.0902765 33.5513121,59.1510706 C32.125394,59.9528647 30.4014026,60.0148059 28.8557948,59.6810118 C27.2917733,59.3449235 25.8439888,58.6693059 24.4813681,57.8881588 C21.779144,56.2719529 19.4164241,54.1923353 17.2355405,51.9716294 C12.8979414,47.4935118 9.2623681,42.3868059 6.23214828,36.9531882 C4.72912241,34.2277765 3.41598879,31.3933941 2.3387819,28.4626588 C1.27193276,25.5307765 0.437557759,22.4887765 0.113014655,19.3435412 C-0.17930431,16.2292765 0.0140405172,12.8649529 1.68394138,9.98239412 C3.31931638,7.23404118 5.85466552,4.86880588 9.02644138,3.90298235 C12.1867086,2.92683529 15.5552819,3.34207059 18.5509759,4.35033529 C21.5696871,5.37351176 24.331756,6.96677647 26.8648034,8.81698235 C31.9032776,12.5586882 36.1752776,17.3017765 39.2653422,22.7594824 C40.7488034,25.5204529 42.0078466,28.3674529 42.9975879,31.3314529 C43.9827259,34.2874235 44.7008638,37.3512176 44.9333379,40.4746588 C45.1692647,43.5866294 44.9448466,46.7743059 43.9551052,49.7589529 C42.9630621,52.7332765 41.1021181,55.4357471 38.5713724,57.2744824 C38.5207345,57.3111882 38.449381,57.3020118 38.4102517,57.2503941 C38.3734241,57.2010706 38.3837819,57.1299529 38.4321181,57.0921" id="Fill-24" fill="#C8D7E2" mask="url(#mask-2)"></path>
                <path d="M50.8342681,64.9635618 C45.7589664,56.9043265 49.0366216,43.2199147 58.928281,34.5619147 L61.6707853,44.2763559 L63.1404362,33.1923265 C66.9083586,31.9076206 72.8329966,32.0188853 76.0208845,35.3992676 C89.19135,49.3624147 65.4881948,71.1485029 54.7253328,66.3996794" id="Fill-25" fill="#FFFFFF" mask="url(#mask-2)"></path>
                <path d="M50.7364448,65.0241265 C49.1712724,62.6290676 48.3587638,59.7809206 48.1872853,56.92245 C48.0284664,54.0548029 48.4519836,51.1745382 49.27485,48.4273324 C50.9389966,42.9225971 54.255781,37.9695971 58.5484966,34.1303912 C58.7832724,33.9204794 59.145794,33.9388324 59.3564017,34.1739794 C59.4162466,34.2405088 59.4565267,34.3162147 59.4806948,34.3965088 L59.4829966,34.4068324 L62.2416129,44.1155382 L61.0826948,44.1981265 L62.5304793,33.1118029 L62.5304793,33.1049206 C62.5615526,32.8686265 62.7284276,32.6816559 62.9413371,32.6105382 C65.4916474,31.7777735 68.2019276,31.5885088 70.8420052,32.0691265 C72.1551388,32.3214794 73.4556129,32.7665382 74.631794,33.4742735 C75.8286905,34.1728324 76.7954147,35.2017441 77.584906,36.2375382 C79.2099233,38.3400971 80.2687164,40.9290088 80.4689664,43.5947735 C80.6910828,46.2639794 80.1248586,48.9228618 79.1293629,51.3431559 C77.0957897,56.2020971 73.4901388,60.2099206 69.2883414,63.2266853 C67.1673026,64.7167147 64.8552207,65.9715971 62.3532466,66.7366853 C59.8811948,67.4880088 57.0696388,67.7185676 54.6321129,66.6093618 C54.5158759,66.5565971 54.4652379,66.4212441 54.5181776,66.3053912 C54.5688155,66.1941265 54.7046172,66.1448029 54.8185526,66.1906853 C57.143294,67.1347147 59.7695612,66.7710971 62.1196216,66.0014206 C64.4996043,65.2168324 66.7138629,63.9550676 68.7359276,62.4673324 C72.7466819,59.4563029 76.1175569,55.4817441 78.0256862,50.8958029 C78.9509793,48.6028324 79.4493026,46.1286265 79.2294879,43.7003029 C79.0269362,41.2719794 78.0602121,38.9503324 76.5560353,37.0255676 C75.7872595,36.0482735 74.9736,35.1845382 73.9562379,34.5811853 C72.9446302,33.9629206 71.7914664,33.5534206 70.5991733,33.3171265 C68.2088328,32.8628912 65.6516172,33.0292147 63.3406862,33.7736559 L63.7526948,33.2723912 L62.2588759,44.3529794 C62.216294,44.6775971 61.9193716,44.9047147 61.5948284,44.8622735 C61.3519966,44.8313029 61.1632552,44.6558029 61.0999578,44.4355676 L58.3747164,34.7165382 L59.3080655,34.9918324 C55.0993629,38.6268618 51.8458759,43.3917441 50.0919621,48.6842735 C49.216156,51.3248029 48.7270397,54.1087147 48.7949405,56.8972147 C48.8375224,59.6765382 49.500419,62.4810971 50.9320914,64.9036853 C50.9643155,64.95645 50.9482034,65.0275676 50.8929621,65.0596853 C50.8400224,65.09295 50.7709707,65.0757441 50.7364448,65.0241265" id="Fill-26" fill="#C8D7E2" mask="url(#mask-2)"></path>
                <path d="M47.431169,74.0918559 C50.1241862,62.0649441 58.0962078,54.5631794 67.0545181,46.98915" id="Fill-27" fill="#FFFFFF" mask="url(#mask-2)"></path>
                <path d="M47.3187297,74.0673088 C47.6375185,71.2134265 48.5386435,68.4375441 49.7493504,65.8188088 C51.0083935,63.2184265 52.5689625,60.7648676 54.3551004,58.5028676 C58.0079366,54.0316324 62.3121608,50.1947206 66.9064022,46.8143382 C67.007678,46.7397794 67.1515358,46.7604265 67.2286435,46.8625147 C67.2965444,46.9565735 67.2850358,47.0861912 67.2033246,47.1641912 C63.1212168,51.1330147 58.8285013,54.8666912 55.3759151,59.30925 C53.6220013,61.4978382 52.0464711,63.8286618 50.787428,66.3281029 C49.4719927,68.8034559 48.476497,71.4256324 47.5431478,74.1166324 C47.5235832,74.1774265 47.4568332,74.2095441 47.3958375,74.1888971 C47.3440487,74.1716912 47.3129754,74.1189265 47.3187297,74.0673088" id="Fill-28" fill="#C8D7E2" mask="url(#mask-2)"></path>
                <path d="M39.4088547,74.4996353 C39.8162599,43.0484294 27.2522987,25.6257529 12.1633461,16.4068412" id="Fill-29" fill="#FFFFFF" mask="url(#mask-2)"></path>
                <path d="M39.2942289,74.4974559 C38.9915522,68.8963676 38.6129185,63.32625 37.6738151,57.8329853 C36.7888022,52.3339853 35.2524013,46.9496912 33.0899315,41.8406912 C30.9481772,36.72825 28.1147547,31.8819265 24.5125565,27.6492794 C20.9402806,23.3925441 16.6924487,19.7208088 12.0429659,16.6031029 C11.9370866,16.5342794 11.9071642,16.3920441 11.9773668,16.2853676 C12.0429659,16.1844265 12.1787677,16.1546029 12.2834961,16.2119559 C17.190772,19.0073382 21.6330996,22.6538382 25.3699487,26.9231912 C29.1148539,31.1948382 32.0460996,36.1386618 34.2891297,41.3359853 C36.4803711,46.5642794 37.9649832,52.0678676 38.8154703,57.6494559 C39.6107159,63.2390735 39.8558496,68.8906324 39.5232504,74.5008971 C39.5197978,74.5639853 39.4657073,74.6133088 39.4024099,74.6087206 C39.3425651,74.6052794 39.2965306,74.5559559 39.2942289,74.4974559" id="Fill-30" fill="#C8D7E2" mask="url(#mask-2)"></path>
                <path d="M22.8078996,82.2949324 L64.1859944,82.2949324" id="Fill-31" fill="#FFFFFF" mask="url(#mask-2)"></path>
                <path d="M22.8078996,82.1806853 C26.2558823,81.8640971 29.7038651,81.7975676 33.1518478,81.7184206 L43.496947,81.6461559 C50.3929125,81.7149794 57.2900289,81.6759794 64.1859944,82.0648324 C64.3125892,82.0728618 64.4092616,82.1806853 64.4035073,82.3080088 C64.3966022,82.4261559 64.3022315,82.5179206 64.1859944,82.5248029 C57.2900289,82.9148029 50.3929125,82.8746559 43.496947,82.9434794 L33.1518478,82.8712147 C29.7038651,82.7920676 26.2558823,82.7255382 22.8078996,82.40895 C22.7434513,82.4032147 22.6974168,82.3481559 22.7031711,82.2850676 C22.7089254,82.2277147 22.7526582,82.1852735 22.8078996,82.1806853" id="Fill-32" fill="#C8D7E2" mask="url(#mask-2)"></path>
                <path d="M42.7996397,114.372203 C45.742394,114.325174 48.646019,113.545174 51.2032345,112.15035 C53.7627517,110.760115 55.9850664,108.790615 57.7159629,106.471262 C61.1915664,101.821085 62.6761784,95.8311441 61.9557388,90.1176441 L61.9845103,90.2598794 L57.3453853,74.7585265 L58.2280966,75.4169382 L42.7996397,75.4719971 L27.3711828,75.4295559 L28.2665534,74.7619676 L23.6297302,90.2644676 L23.6585017,90.1199382 C23.3385621,92.9784088 23.4939284,95.8942324 24.2063121,98.6873206 C24.9117905,101.481556 26.1731353,104.136997 27.9017302,106.457497 C29.6119112,108.788321 31.8192647,110.778468 34.3810836,112.181321 C36.9267905,113.611703 39.8315664,114.420379 42.7996397,114.543115 L42.7996397,114.372203 Z M42.7996397,114.888379 C39.7751741,115.027174 36.7000707,114.357291 33.9426052,113.023262 C31.1874414,111.673174 28.7568207,109.678438 26.8256741,107.282232 C22.9852474,102.456556 21.2221267,96.0639971 21.9195491,89.9180559 C21.9253034,89.8721735 21.9345103,89.8274382 21.9471698,89.7827029 L21.9506224,89.7735265 L26.4746612,74.2366147 C26.5920491,73.83285 26.9614759,73.5701735 27.3642776,73.5690265 L27.3711828,73.5690265 L42.7996397,73.5265853 L58.2280966,73.5804971 L58.2350017,73.5804971 C58.6504629,73.5827912 59.0014759,73.8615265 59.1119586,74.2400559 L63.6348466,89.7769676 L63.63945,89.7895853 C63.6509586,89.8308794 63.6601655,89.8779088 63.664769,89.92035 C63.981256,92.9921735 63.7361224,96.12135 62.9109543,99.0910853 C62.0949931,102.063115 60.6656224,104.859644 58.7551914,107.268468 C56.8459112,109.676144 54.42795,111.692674 51.6716353,113.053085 C48.9245276,114.423821 45.8494241,115.122379 42.7996397,115.060438 L42.7996397,114.888379 Z" id="Fill-33" fill="#C8D7E2" mask="url(#mask-2)"></path>
                <path d="M86.7425457,53.4583324 L86.7425457,45.0526853 L123.869356,45.0526853 C128.027421,45.0526853 131.399447,48.4135676 131.399447,52.5578912 L131.399447,53.4583324 L86.7425457,53.4583324 Z" id="Fill-34" fill="#C879CC" mask="url(#mask-2)"></path>
            </g>
        </g>
    </g>
</svg>